<svg width="37" height="36" viewBox="0 0 37 36" fill="none" xmlns="http://www.w3.org/2000/svg">
<path d="M0 0H36.5V36L18 18L0 0Z" fill="#296CBD"/>
<rect x="19.5" y="5" width="12" height="12" fill="white"/>
<path fill-rule="evenodd" clip-rule="evenodd" d="M25.5 0.916672C19.9312 0.916672 15.4167 5.43125 15.4167 11C15.4167 16.5688 19.9312 21.0833 25.5 21.0833C31.0687 21.0833 35.5833 16.5688 35.5833 11C35.5833 5.43125 31.0687 0.916672 25.5 0.916672ZM29.8707 9.295C29.9511 9.20301 30.0124 9.09585 30.0509 8.97983C30.0893 8.8638 30.1042 8.74126 30.0946 8.61941C30.085 8.49756 30.0511 8.37885 29.9949 8.27029C29.9388 8.16172 29.8615 8.06548 29.7676 7.98723C29.6737 7.90899 29.5651 7.8503 29.4482 7.81465C29.3313 7.77899 29.2084 7.76707 29.0868 7.7796C28.9652 7.79212 28.8474 7.82884 28.7402 7.88759C28.633 7.94633 28.5386 8.02592 28.4627 8.12167L24.521 12.8508L22.4814 10.8103C22.3085 10.6433 22.077 10.5509 21.8366 10.553C21.5963 10.5551 21.3664 10.6515 21.1964 10.8214C21.0265 10.9914 20.9301 11.2213 20.928 11.4616C20.9259 11.702 21.0183 11.9335 21.1852 12.1064L23.9352 14.8564C24.0253 14.9464 24.1332 15.0167 24.2519 15.0627C24.3706 15.1088 24.4976 15.1295 24.6248 15.1238C24.752 15.118 24.8766 15.0858 24.9907 15.0292C25.1048 14.9726 25.2058 14.8928 25.2873 14.795L29.8707 9.295Z" fill="#296CBD"/>
</svg>
