<svg width="29" height="29" viewBox="0 0 29 29" fill="none" xmlns="http://www.w3.org/2000/svg">
<path d="M8.45837 20.5574L13.7907 20.5393L25.4294 9.01175C25.8862 8.555 26.1375 7.94842 26.1375 7.30317C26.1375 6.65792 25.8862 6.05133 25.4294 5.59458L23.513 3.67817C22.5995 2.76467 21.0057 2.7695 20.0995 3.67454L8.45837 15.2045V20.5574ZM21.8044 5.38675L23.7245 7.29954L21.7948 9.21113L19.8783 7.29592L21.8044 5.38675ZM10.875 16.2122L18.1613 8.99483L20.0777 10.9113L12.7927 18.1262L10.875 18.1323V16.2122Z" fill="#296CBD"/>
<path d="M6.04167 25.375H22.9583C24.2911 25.375 25.375 24.2911 25.375 22.9583V12.4845L22.9583 14.9012V22.9583H9.85758C9.82617 22.9583 9.79354 22.9704 9.76213 22.9704C9.72225 22.9704 9.68238 22.9595 9.64129 22.9583H6.04167V6.04167H14.3151L16.7318 3.625H6.04167C4.70887 3.625 3.625 4.70887 3.625 6.04167V22.9583C3.625 24.2911 4.70887 25.375 6.04167 25.375Z" fill="#296CBD"/>
</svg>
