<svg width="93" height="93" viewBox="0 0 93 93" fill="none" xmlns="http://www.w3.org/2000/svg">
<g opacity="0.4">
<path d="M77.6172 61.8828L68.9022 53.1678C68.6334 52.8981 68.3111 52.6842 67.9533 52.5363C67.2433 52.2427 66.4441 52.2427 65.7341 52.5363C65.3767 52.6842 65.0541 52.8981 64.7852 53.1678L56.0703 61.8828C54.9351 63.018 54.9351 64.857 56.0703 65.9925C56.6378 66.5598 57.3813 66.8437 58.125 66.8437C58.8687 66.8437 59.6121 66.5598 60.1797 65.9922L63.9375 62.2347V78.4688C63.9375 80.075 65.2374 81.375 66.8437 81.375C68.45 81.375 69.75 80.075 69.75 78.4688V62.2347L73.5078 65.9925C74.0753 66.5598 74.8188 66.8437 75.5625 66.8437C76.3062 66.8437 77.0496 66.5598 77.6172 65.9922C78.7527 64.857 78.7527 63.018 77.6172 61.8828Z" fill="#686868"/>
<path d="M31.9688 26.1562C17.9711 26.1562 2.90625 22.5176 2.90625 14.5312C2.90625 6.54488 17.9711 2.90625 31.9688 2.90625C45.9664 2.90625 61.0312 6.54488 61.0312 14.5312C61.0312 22.5176 45.9664 26.1562 31.9688 26.1562ZM31.9688 8.71875C16.7138 8.71875 8.71875 13.0383 8.71875 14.5312C8.71875 16.0242 16.7138 20.3438 31.9688 20.3438C47.2237 20.3438 55.2188 16.0242 55.2188 14.5312C55.2188 13.0383 47.2237 8.71875 31.9688 8.71875Z" fill="#686868"/>
<path d="M31.9688 78.4688C17.9711 78.4688 2.90625 74.8301 2.90625 66.8438C2.90625 65.2375 4.20622 63.9375 5.8125 63.9375C7.41878 63.9375 8.71875 65.2375 8.71875 66.8438C8.71875 68.3367 16.7138 72.6562 31.9688 72.6562C37.4264 72.6562 42.6289 72.0744 47.0109 70.9703C48.5663 70.5815 50.1471 71.5237 50.5388 73.0791C50.9306 74.6372 49.9855 76.2152 48.43 76.607C43.5879 77.8244 37.8975 78.4688 31.9688 78.4688Z" fill="#686868"/>
<path d="M31.9688 61.0312C17.9711 61.0312 2.90625 57.3926 2.90625 49.4062C2.90625 47.8 4.20622 46.5 5.8125 46.5C7.41878 46.5 8.71875 47.8 8.71875 49.4062C8.71875 50.8992 16.7138 55.2188 31.9688 55.2188C38.3177 55.2188 44.3346 54.4297 48.918 52.9992C50.442 52.5168 52.0768 53.371 52.5566 54.9066C53.0362 56.4365 52.182 58.0683 50.6522 58.5452C45.5238 60.1486 38.8882 61.0312 31.9688 61.0312Z" fill="#686868"/>
<path d="M31.9688 43.5938C17.9711 43.5938 2.90625 39.9551 2.90625 31.9688C2.90625 30.3625 4.20622 29.0625 5.8125 29.0625C7.41878 29.0625 8.71875 30.3625 8.71875 31.9688C8.71875 33.4617 16.7138 37.7812 31.9688 37.7812C47.2237 37.7812 55.2188 33.4617 55.2188 31.9688C55.2188 30.3625 56.5187 29.0625 58.125 29.0625C59.7313 29.0625 61.0312 30.3625 61.0312 31.9688C61.0312 39.9551 45.9664 43.5938 31.9688 43.5938Z" fill="#686868"/>
<path d="M58.125 51.3816C56.5187 51.3816 55.2188 50.0817 55.2188 48.4754V14.5312C55.2188 12.925 56.5187 11.625 58.125 11.625C59.7313 11.625 61.0312 12.925 61.0312 14.5312V48.4754C61.0312 50.0817 59.7313 51.3816 58.125 51.3816Z" fill="#686868"/>
<path d="M5.8125 69.75C4.20622 69.75 2.90625 68.45 2.90625 66.8438V14.5312C2.90625 12.925 4.20622 11.625 5.8125 11.625C7.41878 11.625 8.71875 12.925 8.71875 14.5312V66.8438C8.71875 68.45 7.41878 69.75 5.8125 69.75Z" fill="#686868"/>
<path d="M66.8438 90.0938C54.024 90.0938 43.5938 79.6635 43.5938 66.8438C43.5938 54.024 54.024 43.5938 66.8438 43.5938C79.6635 43.5938 90.0938 54.024 90.0938 66.8438C90.0938 79.6635 79.6635 90.0938 66.8438 90.0938ZM66.8438 49.4062C57.2281 49.4062 49.4062 57.2281 49.4062 66.8438C49.4062 76.4594 57.2281 84.2812 66.8438 84.2812C76.4594 84.2812 84.2812 76.4594 84.2812 66.8438C84.2812 57.2281 76.4594 49.4062 66.8438 49.4062Z" fill="#686868"/>
</g>
</svg>
