<svg width="60" height="76" viewBox="0 0 60 76" fill="none" xmlns="http://www.w3.org/2000/svg">
<mask id="mask0_2068_15817" style="mask-type:alpha" maskUnits="userSpaceOnUse" x="0" y="0" width="59" height="76">
<path d="M29.0625 23.25C15.0648 23.25 0 19.6114 0 11.625C0 3.63863 15.0648 0 29.0625 0C43.0602 0 58.125 3.63863 58.125 11.625C58.125 19.6114 43.0602 23.25 29.0625 23.25ZM29.0625 5.8125C13.8076 5.8125 5.8125 10.1321 5.8125 11.625C5.8125 13.1179 13.8076 17.4375 29.0625 17.4375C44.3174 17.4375 52.3125 13.1179 52.3125 11.625C52.3125 10.1321 44.3174 5.8125 29.0625 5.8125Z" fill="#C0C0C0"/>
<path d="M29.0625 75.5625C15.0648 75.5625 0 71.9239 0 63.9375C0 62.3312 1.29997 61.0312 2.90625 61.0312C4.51253 61.0312 5.8125 62.3312 5.8125 63.9375C5.8125 65.4304 13.8076 69.75 29.0625 69.75C34.5201 69.75 48.7926 68.0612 53.1746 66.9571C54.7301 66.5682 56.3108 67.5104 56.7025 69.0659C57.0943 70.6239 56.1492 72.202 54.5938 72.5938C49.7516 73.8112 43.5938 76.0938 29.0625 75.5625Z" fill="#C0C0C0"/>
<path d="M32.7851 58.0938C17.0396 58.0938 0.09375 54.3377 0.09375 46.0938C0.09375 44.4357 1.55603 43.0938 3.36289 43.0938C5.16974 43.0938 6.63202 44.4357 6.63202 46.0938C6.63202 47.6349 15.6254 52.0938 32.7851 52.0938C39.9269 52.0938 46.695 51.2792 51.8507 49.8026C53.5651 49.3046 55.4039 50.1863 55.9437 51.7715C56.4831 53.3507 55.5223 55.0352 53.8014 55.5275C48.0327 57.1826 40.5686 58.0938 32.7851 58.0938Z" fill="#C0C0C0"/>
<path d="M29.0625 40.6875C15.0648 40.6875 0 37.0489 0 29.0625C0 27.4562 1.29997 26.1562 2.90625 26.1562C4.51253 26.1562 5.8125 27.4562 5.8125 29.0625C5.8125 30.5554 13.8076 34.875 29.0625 34.875C44.3174 34.875 52.3125 30.5554 52.3125 29.0625C52.3125 27.4562 53.6125 26.1562 55.2188 26.1562C56.825 26.1562 58.125 27.4562 58.125 29.0625C58.125 37.0489 43.0602 40.6875 29.0625 40.6875Z" fill="#C0C0C0"/>
<path d="M55.0937 72.0937C53.4356 72.0937 52.0938 70.0338 52.0938 67.4884V13.6991C52.0938 11.1537 53.4356 9.09375 55.0937 9.09375C56.7518 9.09375 58.0937 11.1537 58.0937 13.6991V67.4884C58.0937 70.0338 56.7518 72.0937 55.0937 72.0937Z" fill="#C0C0C0"/>
<path d="M2.90625 66.8438C1.29997 66.8438 0 65.5438 0 63.9375V11.625C0 10.0187 1.29997 8.71875 2.90625 8.71875C4.51253 8.71875 5.8125 10.0187 5.8125 11.625V63.9375C5.8125 65.5438 4.51253 66.8438 2.90625 66.8438Z" fill="#C0C0C0"/>
</mask>
<g mask="url(#mask0_2068_15817)">
<rect width="30" height="76" fill="#000000"/>
</g>
<mask id="mask1_2068_15817" style="mask-type:alpha" maskUnits="userSpaceOnUse" x="1" y="0" width="59" height="76">
<path d="M30.0625 23.25C44.0602 23.25 59.125 19.6114 59.125 11.625C59.125 3.63863 44.0602 0 30.0625 0C16.0648 0 1 3.63863 1 11.625C1 19.6114 16.0648 23.25 30.0625 23.25ZM30.0625 5.8125C45.3174 5.8125 53.3125 10.1321 53.3125 11.625C53.3125 13.1179 45.3174 17.4375 30.0625 17.4375C14.8076 17.4375 6.8125 13.1179 6.8125 11.625C6.8125 10.1321 14.8076 5.8125 30.0625 5.8125Z" fill="#C0C0C0"/>
<path d="M30.0625 75.5625C44.0602 75.5625 59.125 71.9239 59.125 63.9375C59.125 62.3312 57.825 61.0312 56.2188 61.0312C54.6125 61.0312 53.3125 62.3312 53.3125 63.9375C53.3125 65.4304 45.3174 69.75 30.0625 69.75C24.6049 69.75 10.3324 68.0612 5.95037 66.9571C4.39495 66.5682 2.81424 67.5104 2.42248 69.0659C2.03072 70.6239 2.97582 72.202 4.53125 72.5938C9.37335 73.8112 15.5312 76.0938 30.0625 75.5625Z" fill="#C0C0C0"/>
<path d="M26.3399 58.0938C42.0854 58.0938 59.0312 54.3377 59.0312 46.0938C59.0312 44.4357 57.569 43.0938 55.7621 43.0938C53.9553 43.0938 52.493 44.4357 52.493 46.0938C52.493 47.6349 43.4996 52.0938 26.3399 52.0938C19.1981 52.0938 12.43 51.2792 7.27428 49.8026C5.55994 49.3046 3.72106 50.1863 3.18132 51.7715C2.64192 53.3507 3.60272 55.0352 5.32359 55.5275C11.0923 57.1826 18.5564 58.0938 26.3399 58.0938Z" fill="#C0C0C0"/>
<path d="M30.0625 40.6875C44.0602 40.6875 59.125 37.0489 59.125 29.0625C59.125 27.4562 57.825 26.1562 56.2188 26.1562C54.6125 26.1562 53.3125 27.4562 53.3125 29.0625C53.3125 30.5554 45.3174 34.875 30.0625 34.875C14.8076 34.875 6.8125 30.5554 6.8125 29.0625C6.8125 27.4562 5.51253 26.1562 3.90625 26.1562C2.29997 26.1562 1 27.4562 1 29.0625C1 37.0489 16.0648 40.6875 30.0625 40.6875Z" fill="#C0C0C0"/>
<path d="M4.03125 72.0937C5.68935 72.0937 7.03125 70.0338 7.03125 67.4884V13.6991C7.03125 11.1537 5.68935 9.09375 4.03125 9.09375C2.37315 9.09375 1.03125 11.1537 1.03125 13.6991V67.4884C1.03125 70.0338 2.37315 72.0937 4.03125 72.0937Z" fill="#C0C0C0"/>
<path d="M56.2188 66.8438C57.825 66.8438 59.125 65.5438 59.125 63.9375V11.625C59.125 10.0187 57.825 8.71875 56.2188 8.71875C54.6125 8.71875 53.3125 10.0187 53.3125 11.625V63.9375C53.3125 65.5438 54.6125 66.8438 56.2188 66.8438Z" fill="#C0C0C0"/>
</mask>
<g mask="url(#mask1_2068_15817)">
<rect width="30" height="76" transform="matrix(-1 0 0 1 59.125 0)" fill="#000000"/>
</g>
</svg>
