<svg width="41" height="41" viewBox="0 0 41 41" fill="none" xmlns="http://www.w3.org/2000/svg">
<path d="M34.2254 10.6184L27.8191 4.21213C27.5751 3.97417 27.2471 3.84185 26.9062 3.84377H14.0938C13.4141 3.84377 12.7624 4.11375 12.2818 4.59431C11.8012 5.07487 11.5312 5.72665 11.5312 6.40627V8.96877H8.96875C8.28913 8.96877 7.63735 9.23875 7.15679 9.71931C6.67623 10.1999 6.40625 10.8517 6.40625 11.5313V34.5938C6.40625 35.2734 6.67623 35.9252 7.15679 36.4057C7.63735 36.8863 8.28913 37.1563 8.96875 37.1563H26.9062C27.5859 37.1563 28.2376 36.8863 28.7182 36.4057C29.1988 35.9252 29.4688 35.2734 29.4688 34.5938V32.0313H32.0312C32.7109 32.0313 33.3626 31.7613 33.8432 31.2807C34.3238 30.8002 34.5938 30.1484 34.5938 29.4688V11.5313C34.5957 11.1904 34.4633 10.8625 34.2254 10.6184ZM21.7812 30.75H14.0938C13.7539 30.75 13.4281 30.615 13.1878 30.3747C12.9475 30.1345 12.8125 29.8086 12.8125 29.4688C12.8125 29.129 12.9475 28.8031 13.1878 28.5628C13.4281 28.3225 13.7539 28.1875 14.0938 28.1875H21.7812C22.1211 28.1875 22.447 28.3225 22.6872 28.5628C22.9275 28.8031 23.0625 29.129 23.0625 29.4688C23.0625 29.8086 22.9275 30.1345 22.6872 30.3747C22.447 30.615 22.1211 30.75 21.7812 30.75ZM21.7812 25.625H14.0938C13.7539 25.625 13.4281 25.49 13.1878 25.2497C12.9475 25.0095 12.8125 24.6836 12.8125 24.3438C12.8125 24.004 12.9475 23.6781 13.1878 23.4378C13.4281 23.1975 13.7539 23.0625 14.0938 23.0625H21.7812C22.1211 23.0625 22.447 23.1975 22.6872 23.4378C22.9275 23.6781 23.0625 24.004 23.0625 24.3438C23.0625 24.6836 22.9275 25.0095 22.6872 25.2497C22.447 25.49 22.1211 25.625 21.7812 25.625ZM32.0312 29.4688H29.4688V16.6563C29.4707 16.3154 29.3383 15.9875 29.1004 15.7434L22.6941 9.33713C22.4501 9.09917 22.1221 8.96685 21.7812 8.96877H14.0938V6.40627H26.3777L32.0312 12.0598V29.4688Z" fill="#205493"/>
</svg>
