<svg width="89" height="89" viewBox="0 0 89 89" fill="none" xmlns="http://www.w3.org/2000/svg">
<path d="M75.6171 59.8828L66.9021 51.1678C66.6333 50.8981 66.311 50.6842 65.9532 50.5363C65.2432 50.2427 64.444 50.2427 63.734 50.5363C63.3765 50.6842 63.0539 50.8981 62.7851 51.1678L54.0701 59.8828C52.935 61.018 52.935 62.857 54.0701 63.9925C54.6377 64.5598 55.3811 64.8437 56.1249 64.8437C56.8686 64.8437 57.612 64.5598 58.1796 63.9922L61.9374 60.2347V76.4688C61.9374 78.075 63.2373 79.375 64.8436 79.375C66.4499 79.375 67.7499 78.075 67.7499 76.4688V60.2347L71.5076 63.9925C72.0752 64.5598 72.8186 64.8437 73.5624 64.8437C74.3061 64.8437 75.0495 64.5598 75.6171 63.9922C76.7526 62.857 76.7526 61.018 75.6171 59.8828Z" fill="#296CBD"/>
<path d="M29.9688 24.1562C15.9711 24.1562 0.90625 20.5176 0.90625 12.5312C0.90625 4.54488 15.9711 0.90625 29.9688 0.90625C43.9664 0.90625 59.0312 4.54488 59.0312 12.5312C59.0312 20.5176 43.9664 24.1562 29.9688 24.1562ZM29.9688 6.71875C14.7138 6.71875 6.71875 11.0383 6.71875 12.5312C6.71875 14.0242 14.7138 18.3438 29.9688 18.3438C45.2237 18.3438 53.2188 14.0242 53.2188 12.5312C53.2188 11.0383 45.2237 6.71875 29.9688 6.71875Z" fill="#686868"/>
<path d="M29.9688 76.4688C15.9711 76.4688 0.90625 72.8301 0.90625 64.8438C0.90625 63.2375 2.20622 61.9375 3.8125 61.9375C5.41878 61.9375 6.71875 63.2375 6.71875 64.8438C6.71875 66.3367 14.7138 70.6562 29.9688 70.6562C35.4264 70.6562 40.6289 70.0744 45.0109 68.9703C46.5663 68.5815 48.1471 69.5237 48.5388 71.0791C48.9306 72.6372 47.9855 74.2152 46.43 74.607C41.5879 75.8244 35.8975 76.4688 29.9688 76.4688Z" fill="#686868"/>
<path d="M29.9688 59.0312C15.9711 59.0312 0.90625 55.3926 0.90625 47.4062C0.90625 45.8 2.20622 44.5 3.8125 44.5C5.41878 44.5 6.71875 45.8 6.71875 47.4062C6.71875 48.8992 14.7138 53.2188 29.9688 53.2188C36.3177 53.2188 42.3346 52.4297 46.918 50.9992C48.442 50.5168 50.0768 51.371 50.5566 52.9066C51.0362 54.4365 50.182 56.0683 48.6522 56.5452C43.5238 58.1486 36.8882 59.0312 29.9688 59.0312Z" fill="#686868"/>
<path d="M29.9688 41.5938C15.9711 41.5938 0.90625 37.9551 0.90625 29.9688C0.90625 28.3625 2.20622 27.0625 3.8125 27.0625C5.41878 27.0625 6.71875 28.3625 6.71875 29.9688C6.71875 31.4617 14.7138 35.7812 29.9688 35.7812C45.2237 35.7812 53.2188 31.4617 53.2188 29.9688C53.2188 28.3625 54.5187 27.0625 56.125 27.0625C57.7313 27.0625 59.0312 28.3625 59.0312 29.9688C59.0312 37.9551 43.9664 41.5938 29.9688 41.5938Z" fill="#686868"/>
<path d="M56.125 49.3816C54.5187 49.3816 53.2188 48.0817 53.2188 46.4754V12.5312C53.2188 10.925 54.5187 9.625 56.125 9.625C57.7313 9.625 59.0312 10.925 59.0312 12.5312V46.4754C59.0312 48.0817 57.7313 49.3816 56.125 49.3816Z" fill="#686868"/>
<path d="M3.8125 67.75C2.20622 67.75 0.90625 66.45 0.90625 64.8438V12.5312C0.90625 10.925 2.20622 9.625 3.8125 9.625C5.41878 9.625 6.71875 10.925 6.71875 12.5312V64.8438C6.71875 66.45 5.41878 67.75 3.8125 67.75Z" fill="#686868"/>
<path d="M64.8438 88.0938C52.024 88.0938 41.5938 77.6635 41.5938 64.8438C41.5938 52.024 52.024 41.5938 64.8438 41.5938C77.6635 41.5938 88.0938 52.024 88.0938 64.8438C88.0938 77.6635 77.6635 88.0938 64.8438 88.0938ZM64.8438 47.4062C55.2281 47.4062 47.4062 55.2281 47.4062 64.8438C47.4062 74.4594 55.2281 82.2812 64.8438 82.2812C74.4594 82.2812 82.2812 74.4594 82.2812 64.8438C82.2812 55.2281 74.4594 47.4062 64.8438 47.4062Z" fill="#296CBD"/>
</svg>
