<svg width="33" height="33" viewBox="0 0 33 33" fill="none" xmlns="http://www.w3.org/2000/svg">
<path fill-rule="evenodd" clip-rule="evenodd" d="M16.5 0C7.3875 0 0 7.3875 0 16.5C0 25.6125 7.3875 33 16.5 33C25.6125 33 33 25.6125 33 16.5C33 7.3875 25.6125 0 16.5 0ZM18 22.5C18 22.8978 17.842 23.2794 17.5607 23.5607C17.2794 23.842 16.8978 24 16.5 24C16.1022 24 15.7206 23.842 15.4393 23.5607C15.158 23.2794 15 22.8978 15 22.5V18H10.5C10.1022 18 9.72064 17.842 9.43934 17.5607C9.15804 17.2794 9 16.8978 9 16.5C9 16.1022 9.15804 15.7206 9.43934 15.4393C9.72064 15.158 10.1022 15 10.5 15H15V10.5C15 10.1022 15.158 9.72064 15.4393 9.43934C15.7206 9.15804 16.1022 9 16.5 9C16.8978 9 17.2794 9.15804 17.5607 9.43934C17.842 9.72064 18 10.1022 18 10.5V15H22.5C22.8978 15 23.2794 15.158 23.5607 15.4393C23.842 15.7206 24 16.1022 24 16.5C24 16.8978 23.842 17.2794 23.5607 17.5607C23.2794 17.842 22.8978 18 22.5 18H18V22.5Z" fill="#205493"/>
</svg>
