<svg width="19" height="19" viewBox="0 0 19 19" fill="none" xmlns="http://www.w3.org/2000/svg">
<path d="M8.625 14.75H10.375V13H8.625V14.75ZM9.5 0.75C8.35093 0.75 7.21312 0.976325 6.15152 1.41605C5.08992 1.85578 4.12533 2.5003 3.31282 3.31282C1.67187 4.95376 0.75 7.17936 0.75 9.5C0.75 11.8206 1.67187 14.0462 3.31282 15.6872C4.12533 16.4997 5.08992 17.1442 6.15152 17.5839C7.21312 18.0237 8.35093 18.25 9.5 18.25C11.8206 18.25 14.0462 17.3281 15.6872 15.6872C17.3281 14.0462 18.25 11.8206 18.25 9.5C18.25 8.35093 18.0237 7.21312 17.5839 6.15152C17.1442 5.08992 16.4997 4.12533 15.6872 3.31282C14.8747 2.5003 13.9101 1.85578 12.8485 1.41605C11.7869 0.976325 10.6491 0.75 9.5 0.75ZM9.5 16.5C5.64125 16.5 2.5 13.3587 2.5 9.5C2.5 5.64125 5.64125 2.5 9.5 2.5C13.3587 2.5 16.5 5.64125 16.5 9.5C16.5 13.3587 13.3587 16.5 9.5 16.5ZM9.5 4.25C8.57174 4.25 7.6815 4.61875 7.02513 5.27513C6.36875 5.9315 6 6.82174 6 7.75H7.75C7.75 7.28587 7.93437 6.84075 8.26256 6.51256C8.59075 6.18437 9.03587 6 9.5 6C9.96413 6 10.4092 6.18437 10.7374 6.51256C11.0656 6.84075 11.25 7.28587 11.25 7.75C11.25 9.5 8.625 9.28125 8.625 12.125H10.375C10.375 10.1562 13 9.9375 13 7.75C13 6.82174 12.6313 5.9315 11.9749 5.27513C11.3185 4.61875 10.4283 4.25 9.5 4.25Z" fill="#205493"/>
</svg>
