<svg width="23" height="23" viewBox="0 0 23 23" fill="none" xmlns="http://www.w3.org/2000/svg">
<path d="M20.1937 17.5565C19.6472 17.0331 19.1154 16.4947 18.5988 15.9418C18.1648 15.5008 17.9035 15.18 17.9035 15.18L14.6368 13.6202C15.9447 12.1369 16.6664 10.2275 16.6668 8.25C16.6668 3.74783 13.0035 0.0833282 8.50016 0.0833282C3.99683 0.0833282 0.333496 3.74783 0.333496 8.25C0.333496 12.7522 3.99683 16.4167 8.50016 16.4167C10.557 16.4167 12.4318 15.6467 13.8703 14.3878L15.4302 17.6545C15.4302 17.6545 15.751 17.9158 16.192 18.3498C16.6435 18.7733 17.2373 19.3462 17.8067 19.9447L19.391 21.5687L20.0957 22.3223L22.5702 19.8478L21.8165 19.1432C21.3743 18.7092 20.784 18.1328 20.1937 17.5565ZM8.50016 14.0833C5.28366 14.0833 2.66683 11.4665 2.66683 8.25C2.66683 5.0335 5.28366 2.41666 8.50016 2.41666C11.7167 2.41666 14.3335 5.0335 14.3335 8.25C14.3335 11.4665 11.7167 14.0833 8.50016 14.0833Z" fill="#296CBD"/>
</svg>
