<svg width="12" height="25" viewBox="0 0 33 51" fill="none" xmlns="http://www.w3.org/2000/svg">
<path d="M14.19 49.1215L0.701299 33.7034C-0.890576 31.8893 0.403174 29.0403 2.81911 29.0403H29.7966C30.3373 29.0398 30.8667 29.1952 31.3213 29.4879C31.7759 29.7805 32.1366 30.198 32.3601 30.6904C32.5835 31.1827 32.6603 31.729 32.5813 32.2639C32.5023 32.7988 32.2707 33.2995 31.9144 33.7062L18.4257 49.1187C18.1617 49.4208 17.8361 49.6629 17.4709 49.8288C17.1056 49.9947 16.709 50.0805 16.3079 50.0805C15.9067 50.0805 15.5101 49.9947 15.1449 49.8288C14.7796 49.6629 14.454 49.4208 14.19 49.1187V49.1215Z" fill="black"/>
<path d="M14.19 0.959031L0.701299 16.3772C-0.890576 18.1912 0.403174 21.0403 2.81911 21.0403H29.7966C30.3373 21.0407 30.8667 20.8853 31.3213 20.5927C31.7759 20.3 32.1366 19.8826 32.3601 19.3902C32.5835 18.8979 32.6603 18.3515 32.5813 17.8167C32.5023 17.2818 32.2707 16.781 31.9144 16.3743L18.4257 0.961845C18.1617 0.659755 17.8361 0.417638 17.4709 0.251746C17.1056 0.0858539 16.709 2.58386e-05 16.3079 2.58386e-05C15.9067 2.58386e-05 15.5101 0.0858539 15.1449 0.251746C14.7796 0.417638 14.454 0.659755 14.19 0.961845V0.959031Z" fill="black"/>
</svg>
