<svg width="100" height="100" viewBox="0 0 100 100" fill="none" xmlns="http://www.w3.org/2000/svg">
<path fill-rule="evenodd" clip-rule="evenodd" d="M62.5835 74.0599C46.0734 74.0599 32.5835 69.0267 32.5835 62.7847V18.6907H92.5835V62.7847C92.5835 69.0267 79.1942 74.0599 62.5835 74.0599Z" fill="#E4E7E7"/>
<path fill-rule="evenodd" clip-rule="evenodd" d="M62.5835 29.9659C46.0734 29.9659 32.5835 24.9326 32.5835 18.6907C32.5835 12.4492 46.0734 7.41553 62.5835 7.41553C79.1942 7.41553 92.5835 12.4492 92.5835 18.6907C92.5835 24.9326 79.1942 29.9659 62.5835 29.9659Z" fill="#F6F7F7"/>
<path fill-rule="evenodd" clip-rule="evenodd" d="M27.0336 93.0675C38.0068 93.0675 47.0672 84.1074 47.0672 73.0338C47.0672 62.0608 38.0068 53 27.0336 53C15.9598 53 7 62.0608 7 73.0338C7 84.1073 15.9598 93.0675 27.0336 93.0675Z" fill="#AAF0A4"/>
<path d="M32.4875 66.3138L24.13 75.1433L21.5125 72.3779C21.2192 72.068 20.844 71.9141 20.3991 71.9141C19.9542 71.9141 19.579 72.068 19.2857 72.3779C18.9929 72.6872 18.85 73.0795 18.85 73.5423C18.85 74.0051 18.9929 74.3973 19.2857 74.7066L23.0166 78.6483C23.3291 78.9784 23.7022 79.15 24.13 79.15C24.5579 79.15 24.931 78.9784 25.2435 78.6483L34.7143 68.6425C35.0071 68.3332 35.15 67.9409 35.15 67.4781C35.15 67.0153 35.0071 66.6231 34.7143 66.3138C34.421 66.0039 34.0458 65.85 33.6009 65.85C33.156 65.85 32.7808 66.0039 32.4875 66.3138Z" fill="#434A53" stroke="#434A53" stroke-width="0.3"/>
<path d="M62.5837 46.3758C47.2108 46.3758 30.8721 41.8238 30.8721 33.3891C30.8721 32.444 31.6385 31.6775 32.5836 31.6775C33.5287 31.6775 34.2952 32.444 34.2952 33.3891C34.2952 37.9133 45.912 42.9527 62.5837 42.9527C79.2554 42.9527 90.8722 37.9133 90.8722 33.3891C90.8722 32.444 91.6387 31.6775 92.5838 31.6775C93.5289 31.6775 94.2954 32.444 94.2954 33.3891C94.2954 41.8238 77.9566 46.3758 62.5837 46.3758Z" fill="#434A53"/>
<path d="M62.5837 61.074C58.2831 61.074 53.8594 60.7289 49.4374 60.0457C48.5027 59.9018 47.8629 59.0278 48.0068 58.0948C48.149 57.1601 49.016 56.5099 49.9577 56.6642C54.2097 57.318 58.4565 57.6509 62.5837 57.6509C79.2554 57.6509 90.8722 52.6116 90.8722 48.0873C90.8722 47.1422 91.6387 46.3757 92.5838 46.3757C93.5289 46.3757 94.2953 47.1422 94.2953 48.0873C94.2954 56.522 77.9566 61.074 62.5837 61.074Z" fill="#434A53"/>
<path d="M62.5836 75.873C59.783 75.873 56.8576 75.7048 53.6408 75.358C52.7009 75.2574 52.0212 74.4129 52.1235 73.473C52.2223 72.5331 53.0512 71.8377 54.0084 71.9556C57.1021 72.2886 59.9062 72.4499 62.5836 72.4499C79.2554 72.4499 90.8721 67.3568 90.8721 62.7857C90.8721 61.8406 91.6386 61.0741 92.5837 61.0741C93.5288 61.0741 94.2953 61.8406 94.2953 62.7857C94.2953 70.2458 80.6617 75.873 62.5836 75.873Z" fill="#434A53"/>
<path d="M32.5836 48.2885C31.6385 48.2885 30.8721 47.522 30.8721 46.5769V28.2543C30.8721 27.3092 31.6385 26.5427 32.5836 26.5427C33.5287 26.5427 34.2952 27.3092 34.2952 28.2543V46.5769C34.2952 47.522 33.5287 48.2885 32.5836 48.2885Z" fill="#434A53"/>
<path d="M92.5836 57.3492C91.6385 57.3492 90.8721 56.5827 90.8721 55.6376V18.6907C90.8721 17.7456 91.6385 16.9791 92.5836 16.9791C93.5287 16.9791 94.2952 17.7456 94.2952 18.6907V55.6376C94.2952 56.5827 93.5287 57.3492 92.5836 57.3492Z" fill="#434A53"/>
<path d="M76.0715 37.8197C75.2217 37.8197 74.4847 37.1885 74.3755 36.3231C74.2559 35.3867 74.92 34.5301 75.8582 34.4104C76.6004 34.3168 77.4327 34.1278 78.1749 33.9439C79.0923 33.7081 80.02 34.2717 80.2489 35.189C80.4796 36.1046 79.9212 37.0341 79.0038 37.263C78.1368 37.4815 77.1588 37.6948 76.2882 37.8058C76.2154 37.8145 76.1426 37.8197 76.0715 37.8197ZM83.7241 35.7041C83.0062 35.7041 82.3385 35.2497 82.101 34.5335C81.801 33.6353 82.2865 32.6676 83.183 32.3694C84.0102 32.0937 84.7437 31.8214 85.4773 31.4555C86.3322 31.0359 87.3518 31.3792 87.7732 32.222C88.1946 33.0682 87.8513 34.0965 87.0068 34.5179C86.1276 34.9567 85.2518 35.2879 84.2651 35.6156C84.0848 35.6763 83.9027 35.7041 83.7241 35.7041Z" fill="#434A53"/>
<path d="M76.0715 52.5162C75.2201 52.5162 74.4831 51.8833 74.3756 51.0162C74.2577 50.078 74.9236 49.2231 75.8617 49.1069C76.6022 49.0133 77.4346 48.826 78.175 48.6422C79.0924 48.4029 80.0201 48.9682 80.249 49.8873C80.4797 50.8029 79.9213 51.7324 79.0039 51.9613C78.1351 52.1798 77.1571 52.3948 76.2848 52.5023C76.2137 52.511 76.1409 52.5162 76.0715 52.5162ZM83.7259 50.5029C83.0687 50.5029 82.4427 50.1231 82.16 49.485C81.7768 48.6214 82.1669 47.6104 83.0305 47.2272L84.0207 46.8023C84.5219 46.5925 85.0005 46.3913 85.4774 46.1538C86.3323 45.7341 87.3519 46.0775 87.7733 46.9202C88.1947 47.7665 87.8514 48.7948 87.0068 49.2162C86.4606 49.4884 85.9178 49.7174 85.3473 49.9584L84.4178 50.3555C84.1924 50.4561 83.9566 50.5029 83.7259 50.5029Z" fill="#434A53"/>
<path d="M76.0716 67.3151C75.3051 67.3151 74.6063 66.7966 74.4121 66.018C74.1849 65.1007 74.7416 64.1712 75.6589 63.9423L78.1751 63.3406C79.0924 63.0995 80.0202 63.6683 80.2491 64.5857C80.4797 65.5013 79.9213 66.4307 79.004 66.6596L76.4878 67.2649C76.3491 67.2995 76.2086 67.3151 76.0716 67.3151ZM83.7242 65.2013C83.0063 65.2013 82.3387 64.7469 82.1011 64.0307C81.8011 63.1325 82.2867 62.1648 83.1832 61.8666C84.0104 61.5909 84.7404 61.2198 85.4757 60.8521C86.3237 60.4238 87.3485 60.7689 87.7717 61.6151C88.1965 62.4597 87.8532 63.488 87.0086 63.9111C86.1312 64.3516 85.252 64.7851 84.2653 65.1128C84.0849 65.1735 83.9029 65.2013 83.7242 65.2013Z" fill="#434A53"/>
<path d="M62.5837 31.6775C47.2108 31.6775 30.8721 27.1254 30.8721 18.6907C30.8721 10.256 47.2109 5.70398 62.5837 5.70398C77.9566 5.70398 94.2954 10.256 94.2954 18.6907C94.2954 27.1254 77.9566 31.6775 62.5837 31.6775ZM62.5837 9.12711C45.912 9.12711 34.2952 14.1664 34.2952 18.6907C34.2952 23.215 45.912 28.2543 62.5837 28.2543C79.2554 28.2543 90.8722 23.215 90.8722 18.6907C90.8722 14.1664 79.2555 9.12711 62.5837 9.12711Z" fill="#434A53"/>
<path d="M27.4488 94.2961C15.4592 94.2961 5.70483 84.5418 5.70483 72.5504C5.70483 69.5695 6.34298 66.4845 7.54992 63.6284C7.91929 62.7544 8.932 62.3538 9.79212 62.718C10.6626 63.0856 11.0702 64.0897 10.7025 64.9602C9.67247 67.3983 9.12796 70.0238 9.12796 72.5504C9.12796 82.6533 17.3459 90.873 27.4488 90.873C37.5517 90.873 45.7714 82.6533 45.7714 72.5504C45.7714 59.9746 33.1124 50.2463 19.7615 55.9047C18.891 56.2723 17.8887 55.8665 17.5176 54.996C17.15 54.1255 17.5557 53.1214 18.4263 52.7521C33.9517 46.178 49.1946 57.6232 49.1946 72.5504C49.1945 84.5418 39.4402 94.2961 27.4488 94.2961Z" fill="#434A53"/>
<path d="M12.3481 61.074C11.9528 61.074 11.5556 60.9388 11.2331 60.6596C10.5152 60.044 10.4337 58.9636 11.051 58.2474C11.495 57.7289 11.9372 57.3075 12.3811 56.8879L12.9499 56.3399C13.6192 55.6706 14.7013 55.6706 15.3707 56.3399C16.0383 57.0093 16.0383 58.0914 15.3707 58.7607L14.7325 59.3746C14.3719 59.7162 14.0077 60.0561 13.6453 60.4775C13.3071 60.8711 12.8285 61.074 12.3481 61.074Z" fill="#434A53"/>
</svg>
