<svg width="25" height="22" viewBox="0 0 25 22" fill="none" xmlns="http://www.w3.org/2000/svg">
<path d="M24.1341 20.0317L12.9919 0.745954C12.8259 0.459347 12.5393 0.317383 12.25 0.317383C11.9607 0.317383 11.6715 0.459347 11.5081 0.745954L0.365851 20.0317C0.0364051 20.6049 0.448882 21.3174 1.10777 21.3174H23.3922C24.0511 21.3174 24.4636 20.6049 24.1341 20.0317ZM11.3929 8.24595C11.3929 8.1281 11.4893 8.03167 11.6072 8.03167H12.8928C13.0107 8.03167 13.1071 8.1281 13.1071 8.24595V13.1745C13.1071 13.2924 13.0107 13.3888 12.8928 13.3888H11.6072C11.4893 13.3888 11.3929 13.2924 11.3929 13.1745V8.24595ZM12.25 17.6745C11.9136 17.6677 11.5932 17.5292 11.3577 17.2888C11.1222 17.0484 10.9903 16.7253 10.9903 16.3888C10.9903 16.0523 11.1222 15.7292 11.3577 15.4888C11.5932 15.2484 11.9136 15.11 12.25 15.1031C12.5864 15.11 12.9068 15.2484 13.1423 15.4888C13.3778 15.7292 13.5097 16.0523 13.5097 16.3888C13.5097 16.7253 13.3778 17.0484 13.1423 17.2888C12.9068 17.5292 12.5864 17.6677 12.25 17.6745Z" fill="#FDB81E"/>
</svg>
